<mxfile host="app.diagrams.net" modified="2024-01-12T05:46:52.740Z" agent="Mozilla/5.0 (Windows NT 10.0; Win64; x64) AppleWebKit/537.36 (KHTML, like Gecko) Chrome/104.0.0.0 Safari/537.36" version="22.1.18" etag="cll3Kfr1ZSgIRedT71TB" type="github">
  <diagram name="Page-1" id="god0_JiCSgRjfPZNy23H">
    <mxGraphModel>
      <root>
        <mxCell id="0" />
        <mxCell id="1" parent="0" />
      </root>
    </mxGraphModel>
  </diagram>
</mxfile>
